<svg width="34" height="9" viewBox="0 0 34 9" fill="none" xmlns="http://www.w3.org/2000/svg">
<path d="M0.758434 0.727273H2.72221L3.75204 3.7706H3.82662L5.86142 0.727273H7.8252L4.36284 5.57102L3.95801 8H2.21085L2.61923 5.57102L0.758434 0.727273ZM20.7043 8L21.9117 0.727273H23.6695L23.1865 3.64631H26.0523L26.5352 0.727273H28.2895L27.0821 8H25.3279L25.8108 5.07741H22.945L22.4621 8H20.7043ZM29.2146 8.10298C28.9565 8.10298 28.7458 8.01302 28.5825 7.8331C28.4191 7.65317 28.3481 7.43537 28.3694 7.17969C28.3931 6.92874 28.5044 6.71449 28.7032 6.53693C28.9021 6.35937 29.1294 6.2706 29.385 6.2706C29.6289 6.2706 29.8337 6.35937 29.9994 6.53693C30.1675 6.71449 30.2397 6.92874 30.216 7.17969C30.2018 7.35014 30.1438 7.50521 30.042 7.64489C29.9426 7.78456 29.8195 7.89583 29.6727 7.97869C29.5259 8.06155 29.3732 8.10298 29.2146 8.10298Z" fill="#FF004F"/>
<path d="M8.18564 8H6.29643L9.95765 0.727273H12.2979L13.5443 8H11.6551L10.8561 2.55966H10.7993L8.18564 8ZM8.41291 5.13778H12.3618L12.1345 6.47301H8.18564L8.41291 5.13778ZM18.8719 2.92188C18.8908 2.65436 18.8198 2.44721 18.6588 2.30043C18.5002 2.15365 18.2493 2.08026 17.906 2.08026C17.6787 2.08026 17.4846 2.10985 17.3236 2.16903C17.1626 2.22585 17.036 2.30634 16.9436 2.41051C16.8513 2.51231 16.7933 2.63068 16.7696 2.76562C16.7483 2.87216 16.7542 2.96686 16.7874 3.04972C16.8205 3.13258 16.8785 3.20597 16.9614 3.26989C17.0466 3.33381 17.152 3.38944 17.2774 3.43679C17.4053 3.48414 17.5485 3.52557 17.7071 3.56108L18.3037 3.70312C18.6494 3.78125 18.9488 3.88542 19.2021 4.01562C19.4578 4.14347 19.665 4.29853 19.8236 4.48082C19.9822 4.66075 20.0911 4.8679 20.1503 5.10227C20.2095 5.33665 20.2142 5.59943 20.1645 5.89062C20.0887 6.34991 19.9076 6.74408 19.6212 7.07315C19.3371 7.40223 18.9654 7.65436 18.5061 7.82955C18.0492 8.00473 17.5177 8.09233 16.9117 8.09233C16.3056 8.09233 15.7907 8.00118 15.3669 7.81889C14.9455 7.63423 14.6401 7.35606 14.4507 6.98438C14.2613 6.61269 14.2104 6.14394 14.298 5.57812H15.9777C15.9517 5.8125 15.9813 6.00781 16.0665 6.16406C16.1541 6.32031 16.289 6.43868 16.4713 6.51918C16.6536 6.59967 16.8738 6.63991 17.1318 6.63991C17.3686 6.63991 17.5757 6.60795 17.7533 6.54403C17.9332 6.48011 18.0764 6.39134 18.183 6.2777C18.2919 6.16406 18.3582 6.03385 18.3818 5.88707C18.4055 5.75213 18.383 5.63494 18.3144 5.53551C18.2481 5.43608 18.1344 5.34967 17.9735 5.27628C17.8148 5.20289 17.6065 5.1366 17.3485 5.07741L16.6205 4.89986C16.0191 4.75308 15.5634 4.5187 15.2533 4.19673C14.9455 3.87476 14.8366 3.43797 14.9266 2.88636C15.0023 2.43419 15.1894 2.03883 15.4877 1.70028C15.7883 1.36174 16.1683 1.09896 16.6276 0.911932C17.0892 0.722538 17.597 0.627841 18.151 0.627841C18.7145 0.627841 19.1879 0.723721 19.5715 0.915483C19.9574 1.10488 20.2355 1.3724 20.406 1.71804C20.5788 2.06132 20.6285 2.46259 20.5551 2.92188H18.8719ZM32.2615 8.10298C32.0034 8.10298 31.7927 8.01302 31.6294 7.8331C31.466 7.65317 31.395 7.43537 31.4163 7.17969C31.44 6.92874 31.5512 6.71449 31.7501 6.53693C31.949 6.35937 32.1762 6.2706 32.4319 6.2706C32.6758 6.2706 32.8805 6.35937 33.0463 6.53693C33.2143 6.71449 33.2865 6.92874 33.2629 7.17969C33.2487 7.35014 33.1907 7.50521 33.0889 7.64489C32.9894 7.78456 32.8663 7.89583 32.7195 7.97869C32.5728 8.06155 32.4201 8.10298 32.2615 8.10298Z" fill="#F5F5F5"/>
</svg>
