<svg width="13" height="9" viewBox="0 0 13 9" fill="none" xmlns="http://www.w3.org/2000/svg">
<path d="M1.46751 0.727273H3.43129L4.96893 3.7706H5.03285L6.57049 0.727273H8.53427L5.87447 5.57102V8H4.12731V5.57102L1.46751 0.727273Z" fill="url(#paint0_linear_23_13)"/>
<path d="M6.87757 0.727273V8H5.11976V0.727273H6.87757Z" fill="#262626"/>
<path d="M5.23011 8V0.727273H8.26278C8.80729 0.727273 9.26302 0.804214 9.62997 0.958096C9.99929 1.11198 10.2763 1.32741 10.4609 1.6044C10.648 1.88139 10.7415 2.20218 10.7415 2.56676C10.7415 2.84375 10.6835 3.09115 10.5675 3.30895C10.4515 3.52438 10.2917 3.70312 10.0881 3.84517C9.88447 3.98722 9.64891 4.08665 9.38139 4.14347V4.21449C9.67495 4.22869 9.94602 4.308 10.1946 4.45241C10.4455 4.59683 10.6468 4.79806 10.7983 5.05611C10.9498 5.31179 11.0256 5.61482 11.0256 5.9652C11.0256 6.35582 10.9261 6.70502 10.7273 7.01278C10.5284 7.31818 10.2408 7.55966 9.86435 7.73722C9.48793 7.91241 9.03101 8 8.49361 8H5.23011ZM6.98793 6.5831H8.07457C8.45573 6.5831 8.73627 6.51089 8.91619 6.36648C9.09849 6.22206 9.18963 6.02083 9.18963 5.76278C9.18963 5.57576 9.14583 5.41477 9.05824 5.27983C8.97064 5.14252 8.84635 5.03717 8.68537 4.96378C8.52438 4.88802 8.33144 4.85014 8.10653 4.85014H6.98793V6.5831ZM6.98793 3.71733H7.96094C8.1527 3.71733 8.32315 3.68537 8.4723 3.62145C8.62145 3.55753 8.73745 3.4652 8.82031 3.34446C8.90554 3.22372 8.94815 3.07812 8.94815 2.90767C8.94815 2.66383 8.86174 2.47206 8.68892 2.33239C8.5161 2.19271 8.28291 2.12287 7.98935 2.12287H6.98793V3.71733Z" fill="url(#paint1_linear_23_13)"/>
<defs>
<linearGradient id="paint0_linear_23_13" x1="5" y1="0" x2="5" y2="9" gradientUnits="userSpaceOnUse">
<stop stop-color="#FF004F"/>
<stop offset="0.55" stop-color="#99002F"/>
</linearGradient>
<linearGradient id="paint1_linear_23_13" x1="8" y1="0" x2="8" y2="9" gradientUnits="userSpaceOnUse">
<stop offset="0.295" stop-color="#262626"/>
<stop offset="1" stop-color="#8C8C8C"/>
</linearGradient>
</defs>
</svg>
